<?xml version="1.0" standalone="no"?>
<!DOCTYPE svg PUBLIC "-//W3C//DTD SVG 20010904//EN"
 "http://www.w3.org/TR/2001/REC-SVG-20010904/DTD/svg10.dtd">
<svg version="1.0" xmlns="http://www.w3.org/2000/svg"
 width="500.000000pt" height="500.000000pt" viewBox="0 0 500.000000 500.000000"
 preserveAspectRatio="xMidYMid meet">
<metadata>
Created by potrace 1.14, written by Peter Selinger 2001-2017
</metadata>
<g transform="translate(0.000000,500.000000) scale(0.100000,-0.100000)"
fill="#000000" stroke="none">
<path d="M0 2500 l0 -2500 2500 0 2500 0 0 2500 0 2500 -2500 0 -2500 0 0
-2500z m2622 1843 l108 -108 -36 -24 c-19 -13 -39 -32 -44 -41 -15 -28 10 -97
51 -144 53 -60 109 -81 192 -72 71 7 103 26 134 82 32 58 37 61 111 83 74 22
260 56 267 49 3 -3 -26 -61 -63 -129 -38 -68 -112 -204 -166 -301 l-97 -177
-47 33 c-305 217 -730 219 -1049 4 -31 -21 -44 -25 -50 -16 -27 42 -321 583
-318 586 7 8 195 -30 265 -53 70 -23 77 -28 100 -72 33 -62 63 -82 135 -89
110 -11 197 33 236 121 31 66 25 99 -21 132 l-39 28 107 108 c59 59 109 107
112 107 3 0 54 -48 112 -107z m912 -687 c137 -67 297 -167 410 -256 l66 -52 0
-136 c0 -183 -17 -479 -36 -626 -44 -345 -167 -718 -326 -986 -90 -153 -172
-255 -332 -416 -156 -156 -287 -266 -435 -364 -115 -76 -362 -223 -375 -223
-6 0 -33 13 -61 30 -27 17 -95 56 -150 88 -171 100 -308 198 -492 352 -217
181 -358 373 -512 694 -87 182 -131 300 -175 475 -75 293 -111 619 -104 954
l3 154 60 49 c96 78 259 182 387 248 66 33 121 59 124 57 2 -3 -25 -25 -60
-51 -87 -64 -203 -189 -276 -298 l-60 -90 0 -84 c0 -274 42 -654 96 -862 93
-359 257 -689 466 -938 91 -108 254 -257 384 -350 71 -51 341 -216 361 -221
16 -5 58 19 165 92 386 263 588 443 720 644 281 425 409 854 439 1473 l11 217
-41 70 c-83 139 -199 267 -331 364 -104 77 -97 76 74 -8z m-833 -21 c160 -32
308 -113 430 -235 65 -65 94 -103 121 -160 50 -102 72 -219 64 -327 -8 -91 -6
-94 46 -67 l31 16 -7 -33 c-33 -158 -29 -342 12 -596 l9 -52 -37 29 c-39 31
-65 39 -57 18 2 -7 25 -101 51 -210 l47 -196 -22 -44 c-54 -108 -191 -268
-410 -483 l-164 -160 -7 215 c-4 118 -7 343 -5 500 l2 285 218 85 219 85 -7
90 c-6 92 -23 216 -30 223 -5 6 -618 -179 -629 -189 -6 -6 -2 -62 12 -151 13
-79 26 -181 31 -228 l8 -85 -61 -63 -60 -63 -49 48 c-27 26 -53 56 -58 65 -8
16 16 246 47 434 3 23 2 44 -3 47 -15 10 -609 187 -626 187 -13 0 -17 -9 -17
-39 0 -21 -4 -60 -9 -87 -5 -27 -12 -81 -16 -119 l-7 -70 211 -83 c116 -45
216 -82 221 -82 7 0 10 -177 10 -502 0 -276 -3 -498 -7 -494 -5 4 -50 47 -102
94 -194 179 -419 440 -469 544 -18 36 -20 50 -12 83 67 277 81 341 78 362 l-3
23 -39 -26 -39 -27 6 39 c22 143 29 265 24 408 -3 89 -9 171 -12 184 -7 21 -6
22 19 12 54 -20 55 -18 49 88 -4 72 -1 114 11 162 49 190 178 351 367 454 106
58 217 91 374 110 46 6 172 -4 246 -19z"/>
</g>
</svg>
